<?xml version="1.0" encoding="UTF-8" standalone="no"?>
<!DOCTYPE svg PUBLIC "-//W3C//DTD SVG 1.1//EN" "http://www.w3.org/Graphics/SVG/1.1/DTD/svg11.dtd">
<svg width="100%" height="100%" viewBox="0 0 677 548" version="1.1" xmlns="http://www.w3.org/2000/svg" xmlns:xlink="http://www.w3.org/1999/xlink" xml:space="preserve" xmlns:serif="http://www.serif.com/" style="fill-rule:evenodd;clip-rule:evenodd;stroke-linecap:round;stroke-linejoin:round;stroke-miterlimit:1.5;">
    <g transform="matrix(1,0,0,1,-979.023,-1026.23)">
        <path d="M1533.33,1414.26L1644.04,1567.78L1545.91,1566.43C1502.64,1566.11 1470.71,1544.69 1447.53,1507.07L1397.63,1436.82C1380.37,1407.8 1343.68,1368.2 1278.46,1364.72C1224.94,1361.86 1196.1,1344.26 1194.13,1309.04C1193.96,1306 1193.55,1302.86 1193.47,1299.57C1214.34,1299.35 1318.67,1298.25 1318.67,1298.25C1412.56,1295.03 1485.35,1331.39 1533.33,1414.26Z" style="fill:rgb(2,189,38);stroke:black;stroke-width:12.5px;"/>
        <path d="M1648.98,1034.04L1516.47,1210.78C1485.32,1262.43 1440.54,1292.76 1380.69,1299.57L1193.47,1299.57C1193.56,1289.35 1196.91,1280.89 1201.62,1273.34C1218,1247.05 1262.44,1238.84 1295.17,1239.88C1353.63,1241.72 1366.47,1205.03 1398.57,1164.35L1445.52,1098.87C1478.26,1052.93 1514.85,1029.98 1563.95,1032.7L1648.98,1034.04Z" style="fill:rgb(2,189,38);stroke:black;stroke-width:12.5px;"/>
        <g transform="matrix(0.972823,-5.27696e-05,-5.27696e-05,1,53.0536,-312.298)">
            <path d="M1551.19,1450.95C1554.73,1450.95 1557.59,1453.75 1557.58,1457.19C1557.57,1460.63 1554.7,1463.41 1551.17,1463.4L1432.93,1463.17C1429.4,1463.17 1426.54,1460.37 1426.54,1456.93C1426.55,1453.49 1429.42,1450.71 1432.96,1450.72L1551.19,1450.95Z"/>
        </g>
        <path d="M1261.87,1034.04L990.273,1034.04" style="fill:none;stroke:black;stroke-width:12.5px;"/>
        <g transform="matrix(1,0,0,1,-5,533)">
            <path d="M1261.87,1034.04L990.273,1034.04" style="fill:none;stroke:black;stroke-width:12.5px;"/>
        </g>
        <g transform="matrix(0.95098,0,0,1,91.8613,-311.373)">
            <path d="M1587.68,1399.06C1591.3,1399.06 1594.23,1401.85 1594.23,1405.29C1594.23,1408.73 1591.3,1411.52 1587.68,1411.52L1458.89,1411.52C1455.27,1411.52 1452.34,1408.73 1452.34,1405.29C1452.34,1401.85 1455.27,1399.06 1458.89,1399.06L1587.68,1399.06Z"/>
        </g>
        <g transform="matrix(1,0,0,1,14.0339,-311.373)">
            <path d="M1513.1,1500.77C1516.54,1500.78 1519.31,1503.58 1519.3,1507.02C1519.28,1510.46 1516.48,1513.24 1513.04,1513.22L1410.42,1512.76C1406.98,1512.75 1404.2,1509.95 1404.22,1506.51C1404.24,1503.07 1407.04,1500.29 1410.48,1500.31L1513.1,1500.77Z"/>
        </g>
        <g transform="matrix(0.972823,5.27696e-05,-5.27696e-05,-1,53.0536,2915.49)">
            <path d="M1551.17,1463.4C1554.7,1463.41 1557.57,1460.63 1557.58,1457.19C1557.59,1453.75 1554.73,1450.95 1551.19,1450.95L1432.96,1450.72C1429.42,1450.71 1426.55,1453.49 1426.54,1456.93C1426.54,1460.37 1429.4,1463.17 1432.93,1463.17L1551.17,1463.4Z"/>
        </g>
        <g transform="matrix(0.95098,0,0,-1,91.8613,2914.57)">
            <path d="M1587.68,1411.52C1591.3,1411.52 1594.23,1408.73 1594.23,1405.29C1594.23,1401.85 1591.3,1399.06 1587.68,1399.06L1458.89,1399.06C1455.27,1399.06 1452.34,1401.85 1452.34,1405.29C1452.34,1408.73 1455.27,1411.52 1458.89,1411.52L1587.68,1411.52Z"/>
        </g>
        <g transform="matrix(1,0,0,-1,14.0339,2914.57)">
            <path d="M1513.04,1513.22C1516.48,1513.24 1519.28,1510.46 1519.3,1507.02C1519.31,1503.58 1516.54,1500.78 1513.1,1500.77L1410.48,1500.31C1407.04,1500.29 1404.24,1503.07 1404.22,1506.51C1404.2,1509.95 1406.98,1512.75 1410.42,1512.76L1513.04,1513.22Z"/>
        </g>
        <g transform="matrix(1.06309,0,0,0.97107,221.157,-1332.39)">
            <path d="M1044.52,2919.47C1044.52,2956.5 1017.06,2986.56 983.237,2986.56L788.81,2986.56C754.986,2986.56 727.525,2956.5 727.525,2919.47C727.525,2882.44 754.986,2852.38 788.81,2852.38L983.237,2852.38C1017.06,2852.38 1044.52,2882.44 1044.52,2919.47Z" style="fill:rgb(93,231,119);stroke:black;stroke-width:12.28px;"/>
        </g>
        <g transform="matrix(0.860682,0,0,0.97107,432.579,-1332.39)">
            <path d="M1044.52,2919.47C1044.52,2956.5 1010.6,2986.56 968.825,2986.56L803.223,2986.56C761.444,2986.56 727.525,2956.5 727.525,2919.47C727.525,2882.44 761.444,2852.38 803.223,2852.38L968.825,2852.38C1010.6,2852.38 1044.52,2882.44 1044.52,2919.47Z" style="fill:rgb(52,216,84);stroke:black;stroke-width:13.62px;"/>
        </g>
        <g transform="matrix(0.637221,0,0,0.97107,665.989,-1332.39)">
            <path d="M1044.52,2919.47C1044.52,2956.5 998.709,2986.56 942.279,2986.56L829.768,2986.56C773.339,2986.56 727.525,2956.5 727.525,2919.47C727.525,2882.44 773.339,2852.38 829.768,2852.38L942.279,2852.38C998.709,2852.38 1044.52,2882.44 1044.52,2919.47Z" style="fill:rgb(36,205,69);stroke:black;stroke-width:15.22px;"/>
        </g>
        <g transform="matrix(0.406718,0,0,0.97107,906.755,-1332.39)">
            <path d="M1044.52,2918.76L1044.52,2920.18C1044.52,2956.82 973.502,2986.56 886.024,2986.56C798.546,2986.56 727.525,2956.82 727.525,2920.18L727.525,2918.76C727.525,2882.12 798.546,2852.38 886.024,2852.38C973.502,2852.38 1044.52,2882.12 1044.52,2918.76Z" style="fill:rgb(2,189,38);stroke:black;stroke-width:16.79px;"/>
        </g>
        <g transform="matrix(0.406718,0,0,0.97107,694.376,-1535.45)">
            <path d="M1044.52,2918.76L1044.52,2920.18C1044.52,2956.82 973.502,2986.56 886.024,2986.56C798.546,2986.56 727.525,2956.82 727.525,2920.18L727.525,2918.76C727.525,2882.12 798.546,2852.38 886.024,2852.38C973.502,2852.38 1044.52,2882.12 1044.52,2918.76Z" style="fill:rgb(2,189,38);stroke:black;stroke-width:16.79px;"/>
        </g>
        <g transform="matrix(1.06309,0,0,-0.97107,216.847,3934.2)">
            <path d="M1044.52,2919.47C1044.52,2956.5 1017.06,2986.56 983.237,2986.56L788.81,2986.56C754.986,2986.56 727.525,2956.5 727.525,2919.47C727.525,2882.44 754.986,2852.38 788.81,2852.38L983.237,2852.38C1017.06,2852.38 1044.52,2882.44 1044.52,2919.47Z" style="fill:rgb(93,231,119);stroke:black;stroke-width:12.28px;"/>
        </g>
        <g transform="matrix(0.860682,0,0,-0.97107,428.269,3934.2)">
            <path d="M1044.52,2919.47C1044.52,2956.5 1010.6,2986.56 968.825,2986.56L803.223,2986.56C761.444,2986.56 727.525,2956.5 727.525,2919.47C727.525,2882.44 761.444,2852.38 803.223,2852.38L968.825,2852.38C1010.6,2852.38 1044.52,2882.44 1044.52,2919.47Z" style="fill:rgb(52,216,84);stroke:black;stroke-width:13.62px;"/>
        </g>
        <g transform="matrix(0.637221,0,0,-0.97107,661.679,3934.2)">
            <path d="M1044.52,2919.47C1044.52,2956.5 998.709,2986.56 942.279,2986.56L829.768,2986.56C773.339,2986.56 727.525,2956.5 727.525,2919.47C727.525,2882.44 773.339,2852.38 829.768,2852.38L942.279,2852.38C998.709,2852.38 1044.52,2882.44 1044.52,2919.47Z" style="fill:rgb(36,205,69);stroke:black;stroke-width:15.22px;"/>
        </g>
        <g transform="matrix(0.406718,0,0,-0.97107,902.445,3934.2)">
            <path d="M1044.52,2918.76L1044.52,2920.18C1044.52,2956.82 973.502,2986.56 886.024,2986.56C798.546,2986.56 727.525,2956.82 727.525,2920.18L727.525,2918.76C727.525,2882.12 798.546,2852.38 886.024,2852.38C973.502,2852.38 1044.52,2882.12 1044.52,2918.76Z" style="fill:rgb(2,189,38);stroke:black;stroke-width:16.79px;"/>
        </g>
    </g>
</svg>
